<svg xmlns="http://www.w3.org/2000/svg" viewBox="0 0 16 560">
    <defs>
        <!--
        Icons courtesy [Bootstrap Icons](https://icons.getbootstrap.com/)
        [License](https://github.com/twbs/icons?tab=MIT-1-ov-file)
        -->
        <symbol id="circle-half" viewBox="0 0 16 16">
            <path d="M8 15A7 7 0 1 0 8 1zm0 1A8 8 0 1 1 8 0a8 8 0 0 1 0 16" />
        </symbol>
        <symbol id="sun-fill" viewBox="0 0 16 16">
            <path d="M8 12a4 4 0 1 0 0-8 4 4 0 0 0 0 8M8 0a.5.5 0 0 1 .5.5v2a.5.5 0 0 1-1 0v-2A.5.5 0 0 1 8 0m0 13a.5.5 0 0 1 .5.5v2a.5.5 0 0 1-1 0v-2A.5.5 0 0 1 8 13m8-5a.5.5 0 0 1-.5.5h-2a.5.5 0 0 1 0-1h2a.5.5 0 0 1 .5.5M3 8a.5.5 0 0 1-.5.5h-2a.5.5 0 0 1 0-1h2A.5.5 0 0 1 3 8m10.657-5.657a.5.5 0 0 1 0 .707l-1.414 1.415a.5.5 0 1 1-.707-.708l1.414-1.414a.5.5 0 0 1 .707 0m-9.193 9.193a.5.5 0 0 1 0 .707L3.05 13.657a.5.5 0 0 1-.707-.707l1.414-1.414a.5.5 0 0 1 .707 0m9.193 2.121a.5.5 0 0 1-.707 0l-1.414-1.414a.5.5 0 0 1 .707-.707l1.414 1.414a.5.5 0 0 1 0 .707M4.464 4.465a.5.5 0 0 1-.707 0L2.343 3.05a.5.5 0 1 1 .707-.707l1.414 1.414a.5.5 0 0 1 0 .708" />
        </symbol>
        <symbol id="moon-stars-fill" viewBox="0 0 16 16">
            <path d="M6 .278a.77.77 0 0 1 .08.858 7.2 7.2 0 0 0-.878 3.46c0 4.021 3.278 7.277 7.318 7.277q.792-.001 1.533-.16a.79.79 0 0 1 .81.316.73.73 0 0 1-.031.893A8.35 8.35 0 0 1 8.344 16C3.734 16 0 12.286 0 7.71 0 4.266 2.114 1.312 5.124.06A.75.75 0 0 1 6 .278" />
            <path d="M10.794 3.148a.217.217 0 0 1 .412 0l.387 1.162c.173.518.579.924 1.097 1.097l1.162.387a.217.217 0 0 1 0 .412l-1.162.387a1.73 1.73 0 0 0-1.097 1.097l-.387 1.162a.217.217 0 0 1-.412 0l-.387-1.162A1.73 1.73 0 0 0 9.31 6.593l-1.162-.387a.217.217 0 0 1 0-.412l1.162-.387a1.73 1.73 0 0 0 1.097-1.097zM13.863.099a.145.145 0 0 1 .274 0l.258.774c.115.346.386.617.732.732l.774.258a.145.145 0 0 1 0 .274l-.774.258a1.16 1.16 0 0 0-.732.732l-.258.774a.145.145 0 0 1-.274 0l-.258-.774a1.16 1.16 0 0 0-.732-.732l-.774-.258a.145.145 0 0 1 0-.274l.774-.258c.346-.115.617-.386.732-.732z" />
        </symbol>
        <symbol id="check2" viewBox="0 0 16 16">
            <path d="M13.854 3.646a.5.5 0 0 1 0 .708l-7 7a.5.5 0 0 1-.708 0l-3.5-3.5a.5.5 0 1 1 .708-.708L6.5 10.293l6.646-6.647a.5.5 0 0 1 .708 0" />
        </symbol>
        <symbol id="plus-lg" viewBox="0 0 16 16">
            <path fill-rule="evenodd"
                  d="M8 2a.5.5 0 0 1 .5.5v5h5a.5.5 0 0 1 0 1h-5v5a.5.5 0 0 1-1 0v-5h-5a.5.5 0 0 1 0-1h5v-5A.5.5 0 0 1 8 2" />
        </symbol>
        <symbol id="arrow-90deg-up" viewBox="0 0 16 16">
            <path fill-rule="evenodd"
                  d="M4.854 1.146a.5.5 0 0 0-.708 0l-4 4a.5.5 0 1 0 .708.708L4 2.707V12.5A2.5 2.5 0 0 0 6.5 15h8a.5.5 0 0 0 0-1h-8A1.5 1.5 0 0 1 5 12.5V2.707l3.146 3.147a.5.5 0 1 0 .708-.708z" />
        </symbol>
        <symbol id="info-circle-fill" viewBox="0 0 16 16">
            <path d="M8 16A8 8 0 1 0 8 0a8 8 0 0 0 0 16m.93-9.412-1 4.705c-.07.34.029.533.304.533.194 0 .487-.07.686-.246l-.088.416c-.287.346-.92.598-1.465.598-.703 0-1.002-.422-.808-1.319l.738-3.468c.064-.293.006-.399-.287-.47l-.451-.081.082-.381 2.29-.287zM8 5.5a1 1 0 1 1 0-2 1 1 0 0 1 0 2" />
        </symbol>
        <symbol id="check-circle-fill" viewBox="0 0 16 16">
            <path d="M16 8A8 8 0 1 1 0 8a8 8 0 0 1 16 0m-3.97-3.03a.75.75 0 0 0-1.08.022L7.477 9.417 5.384 7.323a.75.75 0 0 0-1.06 1.06L6.97 11.03a.75.75 0 0 0 1.079-.02l3.992-4.99a.75.75 0 0 0-.01-1.05z" />
        </symbol>
        <symbol id="exclamation-triangle-fill" viewBox="0 0 16 16">
            <path d="M8.982 1.566a1.13 1.13 0 0 0-1.96 0L.165 13.233c-.457.778.091 1.767.98 1.767h13.713c.889 0 1.438-.99.98-1.767zM8 5c.535 0 .954.462.9.995l-.35 3.507a.552.552 0 0 1-1.1 0L7.1 5.995A.905.905 0 0 1 8 5m.002 6a1 1 0 1 1 0 2 1 1 0 0 1 0-2" />
        </symbol>
        <symbol id="download" viewBox="0 0 16 16">
            <path d="M.5 9.9a.5.5 0 0 1 .5.5v2.5a1 1 0 0 0 1 1h12a1 1 0 0 0 1-1v-2.5a.5.5 0 0 1 1 0v2.5a2 2 0 0 1-2 2H2a2 2 0 0 1-2-2v-2.5a.5.5 0 0 1 .5-.5" />
            <path d="M7.646 11.854a.5.5 0 0 0 .708 0l3-3a.5.5 0 0 0-.708-.708L8.5 10.293V1.5a.5.5 0 0 0-1 0v8.793L5.354 8.146a.5.5 0 1 0-.708.708z" />
        </symbol>
        <symbol id="people-fill" viewBox="0 0 16 16">
            <path d="M7 14s-1 0-1-1 1-4 5-4 5 3 5 4-1 1-1 1zm4-6a3 3 0 1 0 0-6 3 3 0 0 0 0 6m-5.784 6A2.24 2.24 0 0 1 5 13c0-1.355.68-2.75 1.936-3.72A6.3 6.3 0 0 0 5 9c-4 0-5 3-5 4s1 1 1 1zM4.5 8a2.5 2.5 0 1 0 0-5 2.5 2.5 0 0 0 0 5" />
        </symbol>
        <symbol id="person-badge" viewBox="0 0 16 16">
            <path d="M6.5 2a.5.5 0 0 0 0 1h3a.5.5 0 0 0 0-1zM11 8a3 3 0 1 1-6 0 3 3 0 0 1 6 0" />
            <path d="M4.5 0A2.5 2.5 0 0 0 2 2.5V14a2 2 0 0 0 2 2h8a2 2 0 0 0 2-2V2.5A2.5 2.5 0 0 0 11.5 0zM3 2.5A1.5 1.5 0 0 1 4.5 1h7A1.5 1.5 0 0 1 13 2.5v10.795a4.2 4.2 0 0 0-.776-.492C11.392 12.387 10.063 12 8 12s-3.392.387-4.224.803a4.2 4.2 0 0 0-.776.492z" />
        </symbol>
        <symbol id="arrow-bar-up" viewBox="0 0 16 16">
            <path fill-rule="evenodd"
                  d="M8 10a.5.5 0 0 0 .5-.5V3.707l2.146 2.147a.5.5 0 0 0 .708-.708l-3-3a.5.5 0 0 0-.708 0l-3 3a.5.5 0 1 0 .708.708L7.5 3.707V9.5a.5.5 0 0 0 .5.5m-7 2.5a.5.5 0 0 1 .5-.5h13a.5.5 0 0 1 0 1h-13a.5.5 0 0 1-.5-.5" />
        </symbol>
        <symbol id="printer-fill" viewBox="0 0 16 16">
            <path d="M5 1a2 2 0 0 0-2 2v1h10V3a2 2 0 0 0-2-2zm6 8H5a1 1 0 0 0-1 1v3a1 1 0 0 0 1 1h6a1 1 0 0 0 1-1v-3a1 1 0 0 0-1-1" />
            <path d="M0 7a2 2 0 0 1 2-2h12a2 2 0 0 1 2 2v3a2 2 0 0 1-2 2h-1v-2a2 2 0 0 0-2-2H5a2 2 0 0 0-2 2v2H2a2 2 0 0 1-2-2zm2.5 1a.5.5 0 1 0 0-1 .5.5 0 0 0 0 1" />
        </symbol>
        <symbol id="search" viewBox="0 0 16 16">
            <path d="M11.742 10.344a6.5 6.5 0 1 0-1.397 1.398h-.001q.044.06.098.115l3.85 3.85a1 1 0 0 0 1.415-1.414l-3.85-3.85a1 1 0 0 0-.115-.1zM12 6.5a5.5 5.5 0 1 1-11 0 5.5 5.5 0 0 1 11 0" />
        </symbol>
        <symbol id="arrow-clockwise" viewBox="0 0 16 16">
            <path fill-rule="evenodd" d="M8 3a5 5 0 1 0 4.546 2.914.5.5 0 0 1 .908-.417A6 6 0 1 1 8 2z" />
            <path d="M8 4.466V.534a.25.25 0 0 1 .41-.192l2.36 1.966c.12.1.12.284 0 .384L8.41 4.658A.25.25 0 0 1 8 4.466" />
        </symbol>
        <symbol id="question-circle" viewBox="0 0 16 16">
            <path d="M8 15A7 7 0 1 1 8 1a7 7 0 0 1 0 14m0 1A8 8 0 1 0 8 0a8 8 0 0 0 0 16" />
            <path d="M5.255 5.786a.237.237 0 0 0 .241.247h.825c.138 0 .248-.113.266-.25.09-.656.54-1.134 1.342-1.134.686 0 1.314.343 1.314 1.168 0 .635-.374.927-.965 1.371-.673.489-1.206 1.06-1.168 1.987l.003.217a.25.25 0 0 0 .25.246h.811a.25.25 0 0 0 .25-.25v-.105c0-.718.273-.927 1.01-1.486.609-.463 1.244-.977 1.244-2.056 0-1.511-1.276-2.241-2.673-2.241-1.267 0-2.655.59-2.75 2.286m1.557 5.763c0 .533.425.927 1.01.927.609 0 1.028-.394 1.028-.927 0-.552-.42-.94-1.029-.94-.584 0-1.009.388-1.009.94" />
        </symbol>
        <symbol id="trash3" viewBox="0 0 16 16">
            <path d="M6.5 1h3a.5.5 0 0 1 .5.5v1H6v-1a.5.5 0 0 1 .5-.5M11 2.5v-1A1.5 1.5 0 0 0 9.5 0h-3A1.5 1.5 0 0 0 5 1.5v1H1.5a.5.5 0 0 0 0 1h.538l.853 10.66A2 2 0 0 0 4.885 16h6.23a2 2 0 0 0 1.994-1.84l.853-10.66h.538a.5.5 0 0 0 0-1zm1.958 1-.846 10.58a1 1 0 0 1-.997.92h-6.23a1 1 0 0 1-.997-.92L3.042 3.5zm-7.487 1a.5.5 0 0 1 .528.47l.5 8.5a.5.5 0 0 1-.998.06L5 5.03a.5.5 0 0 1 .47-.53Zm5.058 0a.5.5 0 0 1 .47.53l-.5 8.5a.5.5 0 1 1-.998-.06l.5-8.5a.5.5 0 0 1 .528-.47M8 4.5a.5.5 0 0 1 .5.5v8.5a.5.5 0 0 1-1 0V5a.5.5 0 0 1 .5-.5" />
        </symbol>
        <symbol id="shuffle" viewBox="0 0 16 16">
            <path fill-rule="evenodd"
                  d="M0 3.5A.5.5 0 0 1 .5 3H1c2.202 0 3.827 1.24 4.874 2.418.49.552.865 1.102 1.126 1.532.26-.43.636-.98 1.126-1.532C9.173 4.24 10.798 3 13 3v1c-1.798 0-3.173 1.01-4.126 2.082A9.6 9.6 0 0 0 7.556 8a9.6 9.6 0 0 0 1.317 1.918C9.828 10.99 11.204 12 13 12v1c-2.202 0-3.827-1.24-4.874-2.418A10.6 10.6 0 0 1 7 9.05c-.26.43-.636.98-1.126 1.532C4.827 11.76 3.202 13 1 13H.5a.5.5 0 0 1 0-1H1c1.798 0 3.173-1.01 4.126-2.082A9.6 9.6 0 0 0 6.444 8a9.6 9.6 0 0 0-1.317-1.918C4.172 5.01 2.796 4 1 4H.5a.5.5 0 0 1-.5-.5" />
            <path d="M13 5.466V1.534a.25.25 0 0 1 .41-.192l2.36 1.966c.12.1.12.284 0 .384l-2.36 1.966a.25.25 0 0 1-.41-.192m0 9v-3.932a.25.25 0 0 1 .41-.192l2.36 1.966c.12.1.12.284 0 .384l-2.36 1.966a.25.25 0 0 1-.41-.192" />
        </symbol>
        <symbol id="pin-map" viewBox="0 0 16 16">
            <path fill-rule="evenodd"
                  d="M3.1 11.2a.5.5 0 0 1 .4-.2H6a.5.5 0 0 1 0 1H3.75L1.5 15h13l-2.25-3H10a.5.5 0 0 1 0-1h2.5a.5.5 0 0 1 .4.2l3 4a.5.5 0 0 1-.4.8H.5a.5.5 0 0 1-.4-.8z" />
            <path fill-rule="evenodd"
                  d="M8 1a3 3 0 1 0 0 6 3 3 0 0 0 0-6M4 4a4 4 0 1 1 4.5 3.969V13.5a.5.5 0 0 1-1 0V7.97A4 4 0 0 1 4 3.999z" />
        </symbol>
        <symbol id="geo-alt" viewBox="0 0 16 16">
            <path d="M12.166 8.94c-.524 1.062-1.234 2.12-1.96 3.07A32 32 0 0 1 8 14.58a32 32 0 0 1-2.206-2.57c-.726-.95-1.436-2.008-1.96-3.07C3.304 7.867 3 6.862 3 6a5 5 0 0 1 10 0c0 .862-.305 1.867-.834 2.94M8 16s6-5.686 6-10A6 6 0 0 0 2 6c0 4.314 6 10 6 10" />
            <path d="M8 8a2 2 0 1 1 0-4 2 2 0 0 1 0 4m0 1a3 3 0 1 0 0-6 3 3 0 0 0 0 6" />
        </symbol>
        <symbol id="map" viewBox="0 0 16 16">
            <path fill-rule="evenodd"
                  d="M15.817.113A.5.5 0 0 1 16 .5v14a.5.5 0 0 1-.402.49l-5 1a.5.5 0 0 1-.196 0L5.5 15.01l-4.902.98A.5.5 0 0 1 0 15.5v-14a.5.5 0 0 1 .402-.49l5-1a.5.5 0 0 1 .196 0L10.5.99l4.902-.98a.5.5 0 0 1 .415.103M10 1.91l-4-.8v12.98l4 .8zm1 12.98 4-.8V1.11l-4 .8zm-6-.8V1.11l-4 .8v12.98z" />
        </symbol>
        <symbol id="list-ul" viewBox="0 0 16 16">
            <path fill-rule="evenodd"
                  d="M5 11.5a.5.5 0 0 1 .5-.5h9a.5.5 0 0 1 0 1h-9a.5.5 0 0 1-.5-.5m0-4a.5.5 0 0 1 .5-.5h9a.5.5 0 0 1 0 1h-9a.5.5 0 0 1-.5-.5m0-4a.5.5 0 0 1 .5-.5h9a.5.5 0 0 1 0 1h-9a.5.5 0 0 1-.5-.5m-3 1a1 1 0 1 0 0-2 1 1 0 0 0 0 2m0 4a1 1 0 1 0 0-2 1 1 0 0 0 0 2m0 4a1 1 0 1 0 0-2 1 1 0 0 0 0 2" />
        </symbol>
        <symbol id="bookmark" viewBox="0 0 16 16">
            <path d="M2 2a2 2 0 0 1 2-2h8a2 2 0 0 1 2 2v13.5a.5.5 0 0 1-.777.416L8 13.101l-5.223 2.815A.5.5 0 0 1 2 15.5zm2-1a1 1 0 0 0-1 1v12.566l4.723-2.482a.5.5 0 0 1 .554 0L13 14.566V2a1 1 0 0 0-1-1z" />
        </symbol>
        <symbol id="chat-left-text" viewBox="0 0 16 16">
            <path d="M14 1a1 1 0 0 1 1 1v8a1 1 0 0 1-1 1H4.414A2 2 0 0 0 3 11.586l-2 2V2a1 1 0 0 1 1-1zM2 0a2 2 0 0 0-2 2v12.793a.5.5 0 0 0 .854.353l2.853-2.853A1 1 0 0 1 4.414 12H14a2 2 0 0 0 2-2V2a2 2 0 0 0-2-2z" />
            <path d="M3 3.5a.5.5 0 0 1 .5-.5h9a.5.5 0 0 1 0 1h-9a.5.5 0 0 1-.5-.5M3 6a.5.5 0 0 1 .5-.5h9a.5.5 0 0 1 0 1h-9A.5.5 0 0 1 3 6m0 2.5a.5.5 0 0 1 .5-.5h5a.5.5 0 0 1 0 1h-5a.5.5 0 0 1-.5-.5" />
        </symbol>
        <symbol id="chat-left-dots" viewBox="0 0 16 16">
            <path d="M14 1a1 1 0 0 1 1 1v8a1 1 0 0 1-1 1H4.414A2 2 0 0 0 3 11.586l-2 2V2a1 1 0 0 1 1-1zM2 0a2 2 0 0 0-2 2v12.793a.5.5 0 0 0 .854.353l2.853-2.853A1 1 0 0 1 4.414 12H14a2 2 0 0 0 2-2V2a2 2 0 0 0-2-2z" />
            <path d="M5 6a1 1 0 1 1-2 0 1 1 0 0 1 2 0m4 0a1 1 0 1 1-2 0 1 1 0 0 1 2 0m4 0a1 1 0 1 1-2 0 1 1 0 0 1 2 0" />
        </symbol>
        <symbol id="x-square" viewBox="0 0 16 16">
            <path d="M14 1a1 1 0 0 1 1 1v12a1 1 0 0 1-1 1H2a1 1 0 0 1-1-1V2a1 1 0 0 1 1-1zM2 0a2 2 0 0 0-2 2v12a2 2 0 0 0 2 2h12a2 2 0 0 0 2-2V2a2 2 0 0 0-2-2z" />
            <path d="M4.646 4.646a.5.5 0 0 1 .708 0L8 7.293l2.646-2.647a.5.5 0 0 1 .708.708L8.707 8l2.647 2.646a.5.5 0 0 1-.708.708L8 8.707l-2.646 2.647a.5.5 0 0 1-.708-.708L7.293 8 4.646 5.354a.5.5 0 0 1 0-.708" />
        </symbol>
        <symbol id="cloud-arrow-up" viewBox="0 0 16 16">
            <path fill-rule="evenodd"
                  d="M7.646 5.146a.5.5 0 0 1 .708 0l2 2a.5.5 0 0 1-.708.708L8.5 6.707V10.5a.5.5 0 0 1-1 0V6.707L6.354 7.854a.5.5 0 1 1-.708-.708z" />
            <path d="M4.406 3.342A5.53 5.53 0 0 1 8 2c2.69 0 4.923 2 5.166 4.579C14.758 6.804 16 8.137 16 9.773 16 11.569 14.502 13 12.687 13H3.781C1.708 13 0 11.366 0 9.318c0-1.763 1.266-3.223 2.942-3.593.143-.863.698-1.723 1.464-2.383m.653.757c-.757.653-1.153 1.44-1.153 2.056v.448l-.445.049C2.064 6.805 1 7.952 1 9.318 1 10.785 2.23 12 3.781 12h8.906C13.98 12 15 10.988 15 9.773c0-1.216-1.02-2.228-2.313-2.228h-.5v-.5C12.188 4.825 10.328 3 8 3a4.53 4.53 0 0 0-2.941 1.1z" />
        </symbol>
    </defs>
    <use href="#circle-half" x="0" y="0" width="16" height="16" />
    <use href="#sun-fill" x="0" y="20" width="16" height="16" />
    <use href="#moon-stars-fill" x="0" y="40" width="16" height="16" />
    <use href="#check2" x="0" y="60" width="16" height="16" />
    <use href="#plus-lg" x="0" y="80" width="16" height="16" />
    <use href="#arrow-90deg-up" x="0" y="100" width="16" height="16" />
    <use href="#info-circle-fill" x="0" y="120" width="16" height="16" />
    <use href="#check-circle-fill" x="0" y="140" width="16" height="16" />
    <use href="#exclamation-triangle-fill" x="0" y="160" width="16" height="16" />
    <use href="#download" x="0" y="180" width="16" height="16" />
    <use href="#people-fill" x="0" y="200" width="16" height="16" />
    <use href="#person-badge" x="0" y="220" width="16" height="16" />
    <use href="#arrow-bar-up" x="0" y="240" width="16" height="16" />
    <use href="#printer-fill" x="0" y="260" width="16" height="16" />
    <use href="#search" x="0" y="280" width="16" height="16" />
    <use href="#arrow-clockwise" x="0" y="300" width="16" height="16" />
    <use href="#question-circle" x="0" y="320" width="16" height="16" />
    <use href="#trash3" x="0" y="340" width="16" height="16" />
    <use href="#shuffle" x="0" y="360" width="16" height="16" />
    <use href="#pin-map" x="0" y="380" width="16" height="16" />
    <use href="#geo-alt" x="0" y="400" width="16" height="16" />
    <use href="#map" x="0" y="420" width="16" height="16" />
    <use href="#list-ul" x="0" y="440" width="16" height="16" />
    <use href="#bookmark" x="0" y="460" width="16" height="16" />
    <use href="#chat-left-text" x="0" y="480" width="16" height="16" />
    <use href="#chat-left-dots" x="0" y="500" width="16" height="16" />
    <use href="#x-square" x="0" y="520" width="16" height="16" />
    <use href="#cloud-arrow-up" x="0" y="540" width="16" height="16" />
</svg>
